<svg aria-hidden="true" style="position:absolute;width:0;height:0;overflow:hidden" xmlns="http://www.w3.org/2000/svg"><defs><symbol id="icon-grid" viewBox="0 0 32 32"><path stroke-width="1.333" d="M5.333 4h5.333c.736 0 1.333.597 1.333 1.333v5.333c0 .736-.597 1.333-1.333 1.333H5.333A1.333 1.333 0 0 1 4 10.666V5.333C4 4.597 4.597 4 5.333 4zM21.333 4h5.333c.736 0 1.333.597 1.333 1.333v5.333c0 .736-.597 1.333-1.333 1.333h-5.333A1.333 1.333 0 0 1 20 10.666V5.333C20 4.597 20.597 4 21.333 4zM5.333 20h5.333c.736 0 1.333.597 1.333 1.333v5.333c0 .736-.597 1.333-1.333 1.333H5.333A1.333 1.333 0 0 1 4 26.666v-5.333C4 20.597 4.597 20 5.333 20zM21.333 20h5.333c.736 0 1.333.597 1.333 1.333v5.333c0 .736-.597 1.333-1.333 1.333h-5.333A1.333 1.333 0 0 1 20 26.666v-5.333c0-.736.597-1.333 1.333-1.333z"/></symbol><symbol id="icon-list" viewBox="0 0 32 32"><path stroke-width="1.333" d="M5.333 4h21.333c.736 0 1.333.597 1.333 1.333v5.333c0 .736-.597 1.333-1.333 1.333H5.333A1.333 1.333 0 0 1 4 10.666V5.333C4 4.597 4.597 4 5.333 4zM5.333 20h21.333c.736 0 1.333.597 1.333 1.333v5.333c0 .736-.597 1.333-1.333 1.333H5.333A1.333 1.333 0 0 1 4 26.666v-5.333C4 20.597 4.597 20 5.333 20z"/></symbol></defs></svg>