<svg aria-hidden="true" style="position:absolute;width:0;height:0;overflow:hidden" xmlns="http://www.w3.org/2000/svg"><defs><symbol id="icon-arrow" viewBox="0 0 32 32"><path stroke-linejoin="round" stroke-linecap="round" stroke-width="2" d="m6 10 10 10 10-10"/></symbol><symbol id="icon-busket" viewBox="0 0 32 32"><path d="M1.998 3.198a1.198 1.198 0 0 1 1.201-1.2h.893c1.52 0 2.432 1.023 2.952 1.973.347.634.598 1.368.795 2.034.053-.004.107-.006.16-.006h19.999a2 2 0 0 1 1.923 2.549l-2.925 10.256a4.4 4.4 0 0 1-4.231 3.194h-9.518a4.396 4.396 0 0 1-4.243-3.236l-1.216-4.436-2.016-6.798-.002-.013c-.25-.907-.483-1.757-.832-2.391-.334-.616-.603-.726-.845-.726h-.895a1.198 1.198 0 0 1-1.2-1.201zm8.118 10.546 1.202 4.383a2.005 2.005 0 0 0 1.93 1.471h9.518a2 2 0 0 0 1.924-1.452l2.78-9.747H8.536l1.559 5.26.022.085zM15.6 26.801a3.2 3.2 0 1 1-6.4 0 3.2 3.2 0 0 1 6.4 0zm-2.4 0a.8.8 0 1 0-1.602 0 .8.8 0 0 0 1.602 0zM26.801 26.801a3.2 3.2 0 1 1-6.4 0 3.2 3.2 0 0 1 6.4 0zm-2.4 0a.8.8 0 1 0-1.602 0 .8.8 0 0 0 1.602 0z"/></symbol><symbol id="icon-check" viewBox="0 0 31 32"><path stroke-linejoin="round" stroke-linecap="round" stroke-width="1.28" d="m3.84 16.96 6.72 6.72L26.88 7.36"/></symbol><symbol id="icon-ellipse" viewBox="0 0 32 32"><path d="M32 16c0 8.837-7.163 16-16 16S0 24.837 0 16 7.163 0 16 0s16 7.163 16 16z"/></symbol><symbol id="icon-fb" viewBox="0 0 32 32"><path d="M18.667 18.2h3.81l1.524-5.867h-5.333V9.4c0-1.511 0-2.933 3.048-2.933h2.286V1.539c-.497-.063-2.373-.205-4.354-.205-4.137 0-7.075 2.43-7.075 6.893v4.107H8.002v5.867h4.571v12.467h6.095V18.201z"/></symbol><symbol id="icon-heart" viewBox="0 0 32 32"><path d="M27.428 6.604c-1.486-1.495-3.455-2.405-5.551-2.562s-4.177.447-5.868 1.703c-1.78-1.333-3.996-1.937-6.202-1.691S5.571 5.377 4.123 7.069c-1.448 1.692-2.204 3.874-2.117 6.105s1.01 4.346 2.585 5.92l10.425 10.49a1.393 1.393 0 0 0 1.986 0l10.425-10.49c.815-.82 1.462-1.793 1.903-2.865a8.883 8.883 0 0 0 0-6.76 8.828 8.828 0 0 0-1.903-2.865zm-1.973 10.504-9.445 9.49-9.445-9.49a6.062 6.062 0 0 1-1.296-6.544c.448-1.098 1.209-2.038 2.186-2.703s2.128-1.024 3.307-1.033a5.929 5.929 0 0 1 4.198 1.76 1.393 1.393 0 0 0 1.986 0 5.952 5.952 0 0 1 8.156.31 6.032 6.032 0 0 1 1.73 4.057 6.032 6.032 0 0 1-1.49 4.152h.112z"/></symbol><symbol id="icon-inst" viewBox="0 0 32 32"><path d="M22.112 3.778a6.13 6.13 0 0 1 6.112 6.111v12.222a6.127 6.127 0 0 1-6.112 6.111H9.89a6.13 6.13 0 0 1-6.111-6.111V9.889A6.13 6.13 0 0 1 9.89 3.778h12.222zm0-2.445H9.89c-4.706 0-8.556 3.85-8.556 8.556v12.222c0 4.706 3.85 8.556 8.556 8.556h12.222c4.706 0 8.556-3.85 8.556-8.556V9.889c0-4.706-3.85-8.556-8.556-8.556z"/><path d="M23.944 9.89a1.839 1.839 0 0 1-1.694-1.132 1.829 1.829 0 0 1 .398-1.998 1.833 1.833 0 1 1 1.297 3.129zM16 11.112a4.89 4.89 0 1 1-4.889 4.889 4.894 4.894 0 0 1 4.89-4.89zm0-2.445a7.332 7.332 0 0 0-1.43 14.526A7.333 7.333 0 1 0 16 8.668z"/></symbol><symbol id="icon-logo" viewBox="0 0 114 32"><path d="M25.83 2.117V31.52h-6.051V19.575H6.05V31.52H-.001V2.117H6.05v11.865h13.729V2.117h6.051zM41.754 32c-2.226 0-4.117-.4-5.675-1.198-1.53-.799-2.699-1.904-3.505-3.316s-1.21-3.036-1.21-4.874c0-1.758.473-3.343 1.419-4.754s2.212-2.53 3.797-3.356c1.586-.852 3.352-1.278 5.3-1.278 2.615 0 4.757.732 6.426 2.197 1.697 1.438 2.796 3.529 3.296 6.272l-14.188 4.315-1.294-3.036 10.265-3.316-1.21.519a3.948 3.948 0 0 0-1.21-1.798c-.556-.533-1.405-.799-2.545-.799-.862 0-1.627.2-2.295.599-.64.373-1.141.919-1.502 1.638-.334.692-.501 1.518-.501 2.477 0 1.092.209 2.011.626 2.757.417.719.988 1.265 1.711 1.638s1.53.559 2.42.559c.64 0 1.252-.107 1.836-.32a9.903 9.903 0 0 0 1.794-.839l2.587 4.155a15 15 0 0 1-3.171 1.278c-1.113.32-2.17.479-3.171.479zM55.847 31.521V0h5.842v31.521h-5.842zm10.474-11.866 8.262 11.865h-6.802l-5.3-8.669 3.839-3.196zm-6.385 7.032-.584-5.313 11.016-7.75 3.547 2.996-13.979 10.067zM80.337 6.392h5.842v7.59h4.423v4.354h-4.423V31.52h-5.842V18.336h-2.838v-4.354h2.838v-7.59zM93.63 22.572c0-1.784.431-3.382 1.294-4.794.89-1.412 2.128-2.517 3.714-3.316 1.586-.826 3.408-1.239 5.466-1.239 2.086 0 3.895.413 5.425 1.239 1.53.799 2.698 1.904 3.505 3.316.835 1.412 1.252 3.009 1.252 4.794s-.417 3.396-1.252 4.834c-.807 1.412-1.975 2.53-3.505 3.356S106.163 32 104.021 32c-2.003 0-3.797-.373-5.383-1.119-1.558-.746-2.782-1.824-3.672-3.236s-1.335-3.103-1.335-5.074zm5.884.04c0 .905.195 1.731.584 2.477.389.719.918 1.292 1.586 1.718s1.419.639 2.253.639c.918 0 1.711-.213 2.379-.639s1.182-.999 1.544-1.718c.362-.746.542-1.571.542-2.477 0-.932-.181-1.758-.542-2.477s-.876-1.292-1.544-1.718c-.668-.426-1.46-.639-2.379-.639-.835 0-1.586.213-2.253.639s-1.196.999-1.586 1.718-.584 1.545-.584 2.477z"/></symbol><symbol id="icon-mail" viewBox="0 0 37 32"><path d="M31.733 0H5.6C4.115 0 2.69.632 1.64 1.757S0 4.408 0 6v20c0 1.591.59 3.117 1.64 4.243S4.115 32 5.6 32h26.133c1.485 0 2.91-.632 3.96-1.757s1.64-2.651 1.64-4.243V6c0-1.591-.59-3.117-1.64-4.243S33.219 0 31.733 0zM5.6 4h26.133c.495 0 .97.211 1.32.586S33.6 5.47 33.6 6l-14.933 9.76L3.734 6c0-.53.197-1.039.547-1.414S5.106 4 5.601 4zm28 22c0 .53-.197 1.039-.547 1.414s-.825.586-1.32.586H5.6c-.495 0-.97-.211-1.32-.586S3.733 26.53 3.733 26V10.56l13.963 9.14c.284.176.606.268.933.268s.65-.092.933-.268l14.037-9.14V26z"/></symbol><symbol id="icon-phone" viewBox="0 0 32 32"><path d="M22.393 30h.039c.739 0 1.438-.291 1.967-.82l3.797-3.797a1.41 1.41 0 0 0 .411-.99 1.39 1.39 0 0 0-.411-.99l-5.6-5.6a1.41 1.41 0 0 0-.99-.411 1.39 1.39 0 0 0-.99.411l-2.232 2.232c-1.035-.308-2.965-1.008-4.189-2.232s-1.924-3.154-2.232-4.189l2.232-2.232a1.41 1.41 0 0 0 .411-.99 1.39 1.39 0 0 0-.411-.99l-5.6-5.6a1.441 1.441 0 0 0-1.98 0L2.819 7.599a2.795 2.795 0 0 0-.82 2.009c.032 1.994.56 8.918 6.017 14.376S20.398 29.968 22.392 30zM7.608 6.771l3.621 3.621-1.81 1.81a1.387 1.387 0 0 0-.379 1.277c.034.161.855 3.979 3.18 6.303s6.142 3.146 6.303 3.18a1.39 1.39 0 0 0 1.277-.379l1.81-1.81 3.621 3.621-2.809 2.807c-1.747-.029-7.725-.498-12.423-5.197C5.286 17.291 4.83 11.292 4.802 9.58l2.807-2.807zM27.2 14.599H30C30 7.417 24.578 2 17.386 2v2.8c5.687 0 9.814 4.12 9.814 9.799z"/><path stroke-width="2" d="M19 8.244V7.041c1.885.159 3.275.779 4.228 1.731S24.8 11.115 24.959 13h-1.203c-.126-1.362-.537-2.518-1.387-3.369S20.362 8.37 19 8.244z"/></symbol><symbol id="icon-rectangle" viewBox="0 0 32 32"><path stroke-width="1.684" d="m15.926 1.684 14.291 14.291-14.291 14.291L1.635 15.975 15.926 1.684z"/></symbol><symbol id="icon-scale" viewBox="0 0 32 32"><path d="M19.5 13.667H16v-3.5a1.167 1.167 0 0 0-2.334 0v3.5h-3.5a1.167 1.167 0 0 0 0 2.334h3.5v3.5a1.167 1.167 0 0 0 2.334 0v-3.5h3.5a1.167 1.167 0 0 0 0-2.334zm7.828 12.005L23 21.379a10.502 10.502 0 0 0-8.478-17.066 10.497 10.497 0 0 0-7.531 17.503 10.497 10.497 0 0 0 14.389 1.183l4.293 4.293a1.176 1.176 0 0 0 1.278.255c.142-.059.271-.146.38-.255a1.167 1.167 0 0 0 0-1.622zM14.833 23a8.17 8.17 0 0 1-7.545-5.041A8.167 8.167 0 0 1 17.957 7.29a8.165 8.165 0 0 1 2.649 13.32 8.166 8.166 0 0 1-5.775 2.392z"/></symbol><symbol id="icon-search" viewBox="0 0 32 32"><path d="m28.959 27.085-4.944-4.907a12.011 12.011 0 0 0-1.352-16.447 11.99 11.99 0 0 0-19.992 8.61c-.084 3.068 1.01 6.052 3.057 8.338a11.99 11.99 0 0 0 16.435 1.353l4.904 4.908a1.334 1.334 0 0 0 1.892 0 1.335 1.335 0 0 0 0-1.854zm-14.272-3.054c-1.845 0-3.648-.547-5.182-1.573a9.338 9.338 0 0 1 3.362-16.917 9.326 9.326 0 0 1 11.147 9.155c0 2.476-.983 4.85-2.732 6.601s-4.122 2.734-6.596 2.734z"/></symbol><symbol id="icon-star" viewBox="0 0 32 32"><path d="M14.195 3.783c.724-1.518 2.886-1.518 3.61 0l2.336 4.895A2.002 2.002 0 0 0 21.685 9.8l5.377.709c1.668.22 2.336 2.275 1.115 3.433l-3.933 3.734a2.001 2.001 0 0 0-.59 1.815l.987 5.333c.306 1.654-1.442 2.924-2.921 2.122l-4.767-2.587a2 2 0 0 0-1.908 0l-4.767 2.587c-1.479.802-3.227-.468-2.921-2.122l.988-5.333a2.001 2.001 0 0 0-.59-1.815l-3.934-3.734c-1.22-1.158-.552-3.214 1.116-3.433l5.377-.709a2.001 2.001 0 0 0 1.544-1.122l2.336-4.895z"/></symbol><symbol id="icon-tw" viewBox="0 0 32 32"><path d="M30.667 6.844c-1.1.489-2.265.811-3.456.956a6.068 6.068 0 0 0 2.648-3.35 11.92 11.92 0 0 1-3.823 1.469c-.567-.608-1.249-1.091-2.004-1.421s-1.569-.499-2.39-.498c-3.326 0-6.017 2.712-6.017 6.056-.002.465.05.929.155 1.381-2.385-.114-4.72-.737-6.856-1.827S4.898 6.986 3.375 5.105a6.076 6.076 0 0 0 1.871 8.088 5.865 5.865 0 0 1-2.737-.756v.075a6.05 6.05 0 0 0 4.828 5.938 6.066 6.066 0 0 1-1.585.213 5.577 5.577 0 0 1-1.131-.113 6.031 6.031 0 0 0 5.625 4.206 12.022 12.022 0 0 1-8.911 2.506A16.76 16.76 0 0 0 10.547 28c11.083 0 17.138-9.231 17.138-17.238 0-.262-.007-.525-.019-.781a12.283 12.283 0 0 0 3.003-3.138z"/></symbol><symbol id="icon-user" viewBox="0 0 32 32"><path d="M16 4a4.995 4.995 0 0 1 4.62 3.087 4.993 4.993 0 0 1-3.643 6.817 4.996 4.996 0 0 1-5.133-2.127 5.003 5.003 0 0 1 .621-6.314 4.997 4.997 0 0 1 3.536-1.464zm0-2a7.002 7.002 0 0 0-6.865 8.365 7.003 7.003 0 0 0 9.544 5.102A7 7 0 0 0 16 2zM26 30h-2v-5c0-.657-.129-1.307-.381-1.913s-.62-1.158-1.084-1.622A5.004 5.004 0 0 0 19 20h-6a4.998 4.998 0 0 0-5 5v5H6v-5a6.999 6.999 0 0 1 7-7h6a7.003 7.003 0 0 1 7 7v5z"/></symbol><symbol id="icon-close" viewBox="0 0 20 20"><path d="M10 8.586 2.929 1.515 1.515 2.929 8.586 10l-7.071 7.071 1.414 1.414L10 11.414l7.071 7.071 1.414-1.414L11.414 10l7.071-7.071-1.414-1.414L10 8.586z"/></symbol><symbol id="icon-checkbox" viewBox="0 0 32 32"><path d="M8 0h16a8 8 0 0 1 8 8v16a8 8 0 0 1-8 8H8a8 8 0 0 1-8-8V8a8 8 0 0 1 8-8z"/></symbol><symbol id="icon-checked" viewBox="0 0 32 32"><path d="M8 0h16a8 8 0 0 1 8 8v16a8 8 0 0 1-8 8H8a8 8 0 0 1-8-8V8a8 8 0 0 1 8-8z"/><path d="M24.946 9.613a1.334 1.334 0 0 0-1.894 0l-9.933 9.947-4.173-4.187a1.355 1.355 0 0 0-1.49-.27 1.356 1.356 0 0 0-.725.75 1.355 1.355 0 0 0 .018 1.043c.072.165.174.313.303.437l5.12 5.12a1.334 1.334 0 0 0 1.894 0l10.88-10.88a1.337 1.337 0 0 0 .317-1.515 1.337 1.337 0 0 0-.317-.445z"/></symbol><symbol id="icon-calendar" viewBox="0 0 32 32"><path d="M20.833 18c.309 0 .606-.105.825-.293S22 17.265 22 17c0-.265-.123-.52-.342-.707S21.143 16 20.833 16c-.309 0-.606.105-.825.293s-.342.442-.342.707c0 .265.123.52.342.707s.516.293.825.293zm0 4c.309 0 .606-.105.825-.293S22 21.265 22 21s-.123-.52-.342-.707c-.219-.187-.515-.293-.825-.293s-.606.105-.825.293c-.219.188-.342.442-.342.707s.123.52.342.707c.219.187.516.293.825.293zm-4.666-5c0 .265-.123.52-.342.707S15.309 18 15 18c-.309 0-.606-.105-.825-.293s-.342-.442-.342-.707c0-.265.123-.52.342-.707S14.691 16 15 16c.309 0 .606.105.825.293s.342.442.342.707zm0 4c0 .265-.123.52-.342.707S15.309 22 15 22s-.606-.105-.825-.293c-.219-.188-.342-.442-.342-.707s.123-.52.342-.707c.219-.187.516-.293.825-.293s.606.105.825.293a.934.934 0 0 1 .342.707zm-7-3c.309 0 .606-.105.825-.293s.342-.442.342-.707c0-.265-.123-.52-.342-.707S9.476 16 9.167 16c-.309 0-.606.105-.825.293S8 16.735 8 17c0 .265.123.52.342.707s.516.293.825.293zm0 4c.309 0 .606-.105.825-.293s.342-.442.342-.707-.123-.52-.342-.707c-.219-.187-.516-.293-.825-.293s-.606.105-.825.293C8.123 20.481 8 20.735 8 21s.123.52.342.707c.219.187.516.293.825.293z"/><path d="M10.419 4c-.222 0-.435.09-.592.251s-.245.379-.245.606v.945c-.289.023-.565.051-.825.087-1.308.181-2.368.56-3.204 1.415-.835.856-1.206 1.941-1.382 3.28C4 11.886 4 13.55 4 15.65v2.414c0 2.101 0 3.763.171 5.066.176 1.34.547 2.424 1.382 3.28.836.855 1.895 1.234 3.204 1.415 1.271.175 2.897.175 4.948.175h4.59c2.052 0 3.676 0 4.949-.175 1.308-.181 2.368-.56 3.204-1.415.835-.856 1.206-1.94 1.382-3.28.171-1.302.171-2.966.171-5.066V15.65c0-2.101 0-3.763-.171-5.066-.176-1.339-.547-2.424-1.382-3.28-.836-.855-1.895-1.234-3.204-1.415-.26-.035-.535-.064-.825-.087v-.945c0-.227-.088-.445-.245-.606a.826.826 0 0 0-1.184 0 .868.868 0 0 0-.245.606v.872c-.739-.015-1.553-.015-2.449-.015h-4.591c-.895 0-1.709 0-2.448.015v-.872c0-.227-.088-.445-.245-.606S10.642 4 10.42 4zm-1.44 3.589c1.149-.158 2.66-.16 4.789-.16h4.465c2.129 0 3.641.002 4.788.16 1.123.154 1.77.445 2.243.928s.756 1.146.907 2.295c.026.195.047.4.065.617H5.768c.018-.216.039-.422.065-.616.151-1.15.434-1.813.906-2.296s1.12-.774 2.241-.928zm-3.305 8.125c0-.976 0-1.825.015-2.571h20.622c.015.746.015 1.595.015 2.571V18c0 2.179-.002 3.728-.156 4.903-.151 1.149-.434 1.811-.907 2.295s-1.12.774-2.243.928c-1.146.158-2.659.16-4.788.16h-4.465c-2.129 0-3.64-.002-4.789-.16-1.122-.154-1.769-.445-2.241-.928s-.756-1.146-.906-2.296c-.154-1.174-.156-2.722-.156-4.902v-2.286z"/></symbol><symbol id="icon-pen" viewBox="0 0 32 32"><path d="m26.996 1.59.298-.298a2.418 2.418 0 0 1 2.631-.523 2.422 2.422 0 0 1 1.306 3.156 2.407 2.407 0 0 1-.523.783l-.298.296a3 3 0 0 1-.118 4.118L9.708 29.708a1 1 0 0 1-.466.262l-8 2a.998.998 0 0 1-1.205-.703 1.01 1.01 0 0 1-.007-.509l2-8a.996.996 0 0 1 .262-.464L21.576 3.01a1.005 1.005 0 0 0-1.284.112l-6.584 6.586a.991.991 0 0 1-.708.293 1.002 1.002 0 0 1-.708-1.709l6.588-6.584A3.003 3.003 0 0 1 23 1.592a3 3 0 0 1 3.996-.002zm-1.288 1.532a1.003 1.003 0 0 0-1.414 0L3.9 23.512l-1.528 6.114 6.114-1.528L28.88 7.708A.991.991 0 0 0 29.173 7a1.002 1.002 0 0 0-.293-.708l-3.172-3.17z"/></symbol><symbol id="icon-vector" viewBox="0 0 40 32"><path d="M37.892 3.227a2.678 2.678 0 0 0-1.894-.789 2.673 2.673 0 0 0-1.894.789L14.237 23.12 5.89 14.747a2.71 2.71 0 0 0-1.94-.764 2.731 2.731 0 0 0-1.913.831 2.71 2.71 0 0 0-.764 1.94c.007.358.083.711.225 1.039.143.328.349.625.606.874l10.24 10.24a2.678 2.678 0 0 0 1.894.789 2.673 2.673 0 0 0 1.894-.789l21.76-21.76a2.656 2.656 0 0 0 .858-1.96 2.663 2.663 0 0 0-.858-1.96z"/></symbol><symbol id="icon-shadow" viewBox="0 0 32 32"><path d="M31.876 25.947a18.296 18.296 0 0 1-12.433 4.849c-10.142 0-18.363-8.221-18.363-18.363C1.08 7.637 2.919 3.27 5.929 0a18.313 18.313 0 0 0-5.93 13.513c0 10.142 8.221 18.363 18.363 18.363a18.31 18.31 0 0 0 13.513-5.93z"/></symbol></defs></svg>



